<svg id="icons" enable-background="new 0 0 64 64" height="512" viewBox="0 0 64 64" width="512" xmlns="http://www.w3.org/2000/svg"><path d="m1 60.008h2.002v1.992c0 .553.447 1 1 1h12c.553 0 1-.447 1-1v-1.992h29.994v1.992c0 .553.447 1 1 1h12c.553 0 1-.447 1-1v-1.992h2.004c.553 0 1-.447 1-1v-33.002c0-.553-.447-1-1-1h-29.002v-2c0-.553-.447-1-1-1h-31.998c-.553 0-1 .447-1 1v3 33.002c0 .553.447 1 1 1zm14.002.992h-10v-.992h10zm43.994 0h-10v-.992h10zm3.004-2.992h-60v-31.002h30.998 29.002zm-60-34.002h29.998v1h-29.998z"/><path d="m40.008 7.887c-.002.018-.004.035-.005.052-.001.023-.007.044-.007.067 0 .019.01.035.011.054.006.1.023.199.06.295.007.018.01.036.017.054l6.001 13.991c.157.367.52.605.919.605.4 0 .762-.238.919-.606l5.998-14.002c.053-.123.072-.254.073-.385 0-.002.002-.004.002-.007s-.001-.005-.001-.008c0-.061-.007-.12-.019-.179-.086-1.812-1.369-3.307-3.082-3.702-.404-1.78-1.993-3.116-3.894-3.116-1.9 0-3.488 1.334-3.894 3.113-1.739.399-3.043 1.929-3.098 3.774zm3.988-1.881c.736 0 1.373.404 1.721.998h-3.441c.347-.594.984-.998 1.72-.998zm3.007 13.462-4.488-10.464h4.472c.004 0 .006.002.01.002s.006-.002.01-.002h4.479zm4.714-12.464h-3.441c.348-.594.984-.998 1.721-.998s1.372.404 1.72.998zm-4.717-4.004c.817 0 1.521.495 1.83 1.199-.721.222-1.35.635-1.834 1.188-.482-.552-1.109-.964-1.827-1.187.31-.704 1.013-1.2 1.831-1.2z"/><path d="m32 32.998c-.553 0-1 .447-1 1v.588l-.293-.293c-.391-.391-1.023-.391-1.414 0s-.391 1.024 0 1.414l1.707 1.705v3.174l-2.244-2.244v-2.412c0-.553-.447-1-1-1s-1 .447-1 1v.412l-.414-.414c-.391-.391-1.023-.391-1.414 0s-.391 1.023 0 1.414l.414.414h-.412c-.553 0-1 .447-1 1s.447 1 1 1h2.412l2.244 2.244h-3.174l-1.705-1.707c-.391-.391-1.023-.391-1.414 0-.391.39-.391 1.023 0 1.414l.293.293h-.588c-.553 0-1 .447-1 1s.447 1 1 1h.586l-.291.291c-.391.391-.391 1.023 0 1.414.195.195.451.293.707.293s.512-.098.707-.293l1.705-1.705h3.174l-2.242 2.242h-2.414c-.553 0-1 .447-1 1s.447 1 1 1h.414l-.416.416c-.391.391-.391 1.023 0 1.414.195.195.451.293.707.293s.512-.098.707-.293l.414-.414v.412c0 .553.447 1 1 1s1-.447 1-1v-2.412l2.244-2.244v3.172l-1.707 1.707c-.391.391-.391 1.023 0 1.414.195.195.451.293.707.293s.512-.098.707-.293l.293-.293v.586c0 .553.447 1 1 1s1-.447 1-1v-.586l.293.293c.195.195.451.293.707.293s.512-.098.707-.293c.391-.391.391-1.023 0-1.414l-1.707-1.707v-3.172l2.242 2.242v2.414c0 .553.447 1 1 1s1-.447 1-1v-.414l.414.414c.195.195.451.293.707.293s.512-.098.707-.293c.391-.391.391-1.023 0-1.414l-.414-.414h.414c.553 0 1-.447 1-1s-.447-1-1-1h-2.414l-2.242-2.242h3.172l1.707 1.705c.195.195.451.293.707.293s.512-.098.707-.293c.391-.391.391-1.024 0-1.414l-.291-.291h.584c.553 0 1-.447 1-1s-.447-1-1-1h-.586l.293-.293c.391-.391.391-1.023 0-1.414s-1.023-.391-1.414 0l-1.707 1.707h-3.172l2.244-2.244h2.412c.553 0 1-.447 1-1s-.447-1-1-1h-.412l.414-.414c.391-.391.391-1.023 0-1.414s-1.023-.391-1.414 0l-.416.416v-.416c0-.553-.447-1-1-1s-1 .447-1 1v2.416l-2.242 2.242v-3.174l1.705-1.705c.391-.391.391-1.023 0-1.414s-1.023-.391-1.414 0l-.291.291v-.586c0-.553-.447-1-1-1z"/><path d="m46.998 41.002h9c.553 0 1-.447 1-1s-.447-1-1-1h-9c-.553 0-1 .447-1 1s.447 1 1 1z"/><path d="m46.998 44.002h9c.553 0 1-.447 1-1s-.447-1-1-1h-9c-.553 0-1 .447-1 1s.447 1 1 1z"/><path d="m53.998 45.002h-5c-.553 0-1 .447-1 1s.447 1 1 1h5c.553 0 1-.447 1-1s-.447-1-1-1z"/><path d="m17 39.002h-9c-.553 0-1 .447-1 1s.447 1 1 1h9c.553 0 1-.447 1-1s-.447-1-1-1z"/><path d="m17 42.002h-9c-.553 0-1 .447-1 1s.447 1 1 1h9c.553 0 1-.447 1-1s-.447-1-1-1z"/><path d="m15 45.002h-5c-.553 0-1 .447-1 1s.447 1 1 1h5c.553 0 1-.447 1-1s-.447-1-1-1z"/></svg>