<svg id="Layer_1" enable-background="new 0 0 512.002 512.002" height="512" viewBox="0 0 512.002 512.002" width="512" xmlns="http://www.w3.org/2000/svg"><g><g><path d="m436.001 0h-360c-27.57 0-50 22.43-50 50v380c0 12.013 7.1 22.393 17.321 27.18v34.642c0 11.023 8.97 19.995 19.995 20l382.679.18h.01c5.329 0 10.347-2.083 14.129-5.866 3.783-3.784 5.866-8.803 5.866-14.134v-33.722c11.639-4.128 20-15.243 20-28.28v-380c0-27.57-22.429-50-50-50zm28.28 40h-288.379c4.397-5.81 7.554-12.607 9.074-20h251.025c13.037 0 24.152 8.361 28.28 20zm-388.28-20h88.267c-4.171 11.666-15.391 20-28.263 20h-88.284c4.128-11.639 15.243-20 28.28-20zm-12.679 471.822v-31.822h21.339v5.911c0 5.523 4.477 10 10 10s10-4.477 10-10v-5.911h20v5.911c0 5.523 4.477 10 10 10s10-4.477 10-10v-5.911h20v5.911c0 5.523 4.477 10 10 10s10-4.477 10-10v-5.911h20v5.911c0 5.523 4.477 10 10 10s10-4.477 10-10v-5.911h20v5.911c0 5.523 4.477 10 10 10 5.522 0 10-4.477 10-10v-5.911h20v5.911c0 5.523 4.478 10 10 10s10-4.477 10-10v-5.911h20v5.911c0 5.523 4.478 10 10 10s10-4.477 10-10v-5.911h20v5.911c0 5.523 4.478 10 10 10s10-4.477 10-10v-5.911h20v5.911c0 5.523 4.478 10 10 10s10-4.477 10-10v-5.911h21.341l.004 32.002zm392.679-51.822h-400c-5.514 0-10-4.486-10-10v-10.002h43.664c5.523 0 10-4.477 10-10s-4.477-10-10-10h-43.664v-339.998h420v370c0 5.514-4.486 10-10 10z"/><path d="m347.215 228.787c-3.905-3.905-10.235-3.905-14.143 0l-11.213 11.213h-41.715l20-20h15.858c5.522 0 10-4.477 10-10s-4.478-10-10-10h-10v-10c0-5.523-4.478-10-10-10s-10 4.477-10 10v15.857l-20 20v-41.716l11.213-11.213c3.905-3.905 3.905-10.237 0-14.143-3.906-3.905-10.236-3.905-14.143 0l-7.071 7.071-7.071-7.071c-3.905-3.905-10.237-3.905-14.143 0s-3.905 10.237 0 14.143l11.213 11.213v41.715l-20-20v-15.856c0-5.523-4.477-10-10-10s-10 4.477-10 10v10h-10c-5.523 0-10 4.477-10 10s4.477 10 10 10h15.857l20 20h-41.715l-11.213-11.213c-3.905-3.905-10.237-3.905-14.143 0s-3.905 10.237 0 14.143l7.071 7.071-7.071 7.071c-3.905 3.905-3.905 10.237 0 14.143 1.953 1.953 4.512 2.929 7.071 2.929s5.119-.976 7.071-2.929l11.215-11.215h41.716l-20 20h-15.858c-5.523 0-10 4.477-10 10s4.477 10 10 10h10v10c0 5.523 4.477 10 10 10s10-4.477 10-10v-15.857l20-20v41.716l-11.213 11.214c-3.905 3.905-3.905 10.237 0 14.142s10.237 3.905 14.142 0l7.071-7.071 7.071 7.071c1.953 1.953 4.512 2.93 7.071 2.929 2.559 0 5.118-.977 7.071-2.929 3.905-3.905 3.905-10.237 0-14.142l-11.213-11.213v-41.716l20 20v15.856c0 5.523 4.478 10 10 10s10-4.477 10-10v-10h10c5.522 0 10-4.477 10-10s-4.478-10-10-10h-15.858l-20-20h41.716l11.214 11.213c1.953 1.953 4.512 2.929 7.071 2.929s5.118-.977 7.071-2.929c3.905-3.905 3.905-10.237 0-14.142l-7.071-7.071 7.071-7.071c3.905-3.905 3.905-10.237 0-14.142z"/><path d="m134.661 399.998c-5.523 0-10 4.477-10 10s4.477 10 10 10h.007c5.523 0 9.997-4.477 9.997-10s-4.481-10-10.004-10z"/></g></g></svg>