<svg width="239.9375px" height="123.23251953124999px" xmlns="http://www.w3.org/2000/svg" viewBox="130.03125 13.383740234375004 239.9375 123.23251953124999" style="background: rgb(255, 255, 255);" preserveAspectRatio="xMidYMid"><defs><filter id="editing-lego" x="-100%" y="-100%" width="300%" height="300%"><feFlood flood-color="#000" result="f1"></feFlood><feFlood flood-color="#ee0000" result="f2"></feFlood><feMorphology operator="dilate" radius="3" in="SourceAlpha"></feMorphology><feConvolveMatrix order="5,5" divisor="1" result="cm1" kernelMatrix="0 1 1 1 0  1 0 0 0 1  1 0 0 0 1  1 0 0 0 1  0 1 1 1 0"></feConvolveMatrix><feComposite operator="in" in="f1" in2="cm1" result="c1"></feComposite><feMorphology operator="dilate" radius="3"></feMorphology><feConvolveMatrix order="5,5" divisor="1" result="cm2" kernelMatrix="0 1 1 1 0  1 0 0 0 1  1 0 0 0 1  1 0 0 0 1  0 1 1 1 0"></feConvolveMatrix><feComposite operator="in" in="f2" in2="cm2" result="c2"></feComposite><feMerge><feMergeNode in="c2"></feMergeNode><feMergeNode in="c1"></feMergeNode><feMergeNode in="SourceGraphic"></feMergeNode></feMerge></filter></defs><g filter="url(#editing-lego)"><g transform="translate(168.7149999141693, 84.52000045776367)"><path d="M15.79 0L15.79 0L15.42 0L15.42 0Q14.80 0 14.80-0.66L14.80-0.66L14.80-15.04L10.25-4.37L10.25-4.37Q10.01-3.95 9.49-3.95L9.49-3.95L9.07-3.95L9.07-3.95Q8.55-3.95 8.37-4.37L8.37-4.37L3.81-15.13L3.81-0.66L3.81-0.66Q3.81-0.42 3.67-0.21L3.67-0.21L3.67-0.21Q3.52 0 3.20 0L3.20 0L2.82 0L2.82 0Q2.16 0 2.16-0.66L2.16-0.66L2.16-18.28L2.16-18.28Q2.16-18.99 2.82-18.99L2.82-18.99L3.52-18.99L3.52-18.99Q3.95-18.99 4.09-18.61L4.09-18.61L9.31-6.39L14.43-18.61L14.43-18.61Q14.57-18.99 15.04-18.99L15.04-18.99L15.79-18.99L15.79-18.99Q16.12-18.99 16.26-18.75L16.26-18.75L16.26-18.75Q16.40-18.52 16.40-18.28L16.40-18.28L16.40-0.66L16.40-0.66Q16.40-0.42 16.26-0.21L16.26-0.21L16.26-0.21Q16.12 0 15.79 0ZM21.67-15.60L21.67-15.60L20.35-15.60L20.35-15.60Q20.26-15.60 20.33-15.84L20.33-15.84L20.33-15.84Q20.40-16.07 20.40-16.26L20.40-16.26L20.40-18.38L20.40-18.38Q20.40-18.61 20.33-18.80L20.33-18.80L20.33-18.80Q20.26-18.99 20.35-18.99L20.35-18.99L21.67-18.99L21.67-18.99Q21.76-18.99 21.74-18.80L21.74-18.80L21.74-18.80Q21.71-18.61 21.71-18.38L21.71-18.38L21.71-16.26L21.71-16.26Q21.71-16.07 21.74-15.84L21.74-15.84L21.74-15.84Q21.76-15.60 21.67-15.60ZM21.67 0L21.67 0L20.35 0L20.35 0Q20.26 0 20.33-0.21L20.33-0.21L20.33-0.21Q20.40-0.42 20.40-0.61L20.40-0.61L20.40-13.44L20.40-13.44Q20.40-13.68 20.33-13.87L20.33-13.87L20.33-13.87Q20.26-14.05 20.35-14.05L20.35-14.05L21.67-14.05L21.67-14.05Q21.76-14.05 21.74-13.87L21.74-13.87L21.74-13.87Q21.71-13.68 21.71-13.44L21.71-13.44L21.71-0.61L21.71-0.61Q21.71-0.42 21.74-0.21L21.74-0.21L21.74-0.21Q21.76 0 21.67 0ZM33.23 0L33.23 0L32.95 0L32.95 0Q32.62 0 32.34-0.61L32.34-0.61L32.34-0.61Q31.07 0 30.22 0L30.22 0L28.53 0L28.53 0Q26.93 0 26.04-1.03L26.04-1.03L26.04-1.03Q25.14-2.07 25.14-3.85L25.14-3.85L25.14-9.96L25.14-9.96Q25.14-11.75 26.04-12.78L26.04-12.78L26.04-12.78Q26.93-13.82 28.53-13.82L28.53-13.82L33.23-13.82L33.23-13.82Q33.79-13.82 33.79-13.25L33.79-13.25L33.79-0.61L33.79-0.61Q33.79 0 33.23 0ZM32.52-10.39L32.52-11.00L32.52-11.00Q32.52-11.19 32.43-11.56L32.43-11.56L32.43-11.56Q32.34-11.89 32.10-12.08L32.10-12.08L32.10-12.08Q31.87-12.27 31.35-12.36L31.35-12.36L28.53-12.36L28.53-12.36Q26.46-12.36 26.46-9.96L26.46-9.96L26.46-3.90L26.46-3.90Q26.46-1.46 28.53-1.46L28.53-1.46L30.17-1.46L30.17-1.46Q32.48-1.46 32.48-3.76L32.48-3.76L32.48-3.76Q32.48-6.96 32.50-8.41L32.50-8.41L32.50-8.41Q32.52-9.87 32.52-10.39L32.52-10.39ZM45.50 0L45.50 0L45.17 0L45.17 0Q44.70 0 44.70-0.61L44.70-0.61L44.70-9.96L44.70-9.96Q44.70-12.36 42.63-12.36L42.63-12.36L40.94-12.36L40.94-12.36Q38.73-12.36 38.73-10.06L38.73-10.06L38.73-0.61L38.73-0.61Q38.73 0 38.21 0L38.21 0L37.88 0L37.88 0Q37.41 0 37.41-0.61L37.41-0.61L37.41-13.25L37.41-13.25Q37.41-13.49 37.53-13.65L37.53-13.65L37.53-13.65Q37.65-13.82 37.88-13.82L37.88-13.82L38.21-13.82L38.21-13.82Q38.35-13.82 38.47-13.70L38.47-13.70L38.47-13.70Q38.59-13.58 38.82-13.21L38.82-13.21L38.82-13.21Q39.90-13.82 40.94-13.82L40.94-13.82L42.63-13.82L42.63-13.82Q44.18-13.82 45.12-12.78L45.12-12.78L45.12-12.78Q46.06-11.75 46.06-9.96L46.06-9.96L46.06-0.61L46.06-0.61Q46.06 0 45.50 0ZM66.69 0L66.69 0L59.17 0L59.17 0Q58.61 0 58.61-0.66L58.61-0.66L58.61-18.28L58.61-18.28Q58.61-18.99 59.17-18.99L59.17-18.99L66.69-18.99L66.69-18.99Q67.30-18.99 67.30-18.33L67.30-18.33L67.30-17.95L67.30-17.95Q67.30-17.63 67.09-17.46L67.09-17.46L67.09-17.46Q66.88-17.30 66.69-17.30L66.69-17.30L60.11-17.30L60.11-10.53L66.08-10.53L66.08-10.53Q66.27-10.53 66.48-10.36L66.48-10.36L66.48-10.36Q66.69-10.20 66.69-9.82L66.69-9.82L66.69-9.49L66.69-9.49Q66.69-8.84 66.08-8.84L66.08-8.84L60.11-8.84L60.11-1.69L66.69-1.69L66.69-1.69Q67.30-1.69 67.30-1.03L67.30-1.03L67.30-0.66L67.30-0.66Q67.30-0.33 67.09-0.16L67.09-0.16L67.09-0.16Q66.88 0 66.69 0ZM71.91 0L71.91 0L71.58 0L71.58 0Q71.35 0 71.23-0.19L71.23-0.19L71.23-0.19Q71.11-0.38 71.11-0.61L71.11-0.61L71.11-18.42L71.11-18.42Q71.11-19.04 71.58-19.04L71.58-19.04L71.91-19.04L71.91-19.04Q72.47-19.04 72.47-18.42L72.47-18.42L72.47-0.61L72.47-0.61Q72.47 0 71.91 0ZM84.46-6.06L84.46-6.06L77.46-6.06L77.46-3.90L77.46-3.90Q77.46-1.46 79.52-1.46L79.52-1.46L84.27-1.46L84.27-1.46Q84.83-1.46 84.83-0.89L84.83-0.89L84.83-0.56L84.83-0.56Q84.83-0.28 84.65-0.14L84.65-0.14L84.65-0.14Q84.46 0 84.27 0L84.27 0L79.52 0L79.52 0Q77.93 0 77.03-1.03L77.03-1.03L77.03-1.03Q76.14-2.07 76.14-3.85L76.14-3.85L76.14-9.96L76.14-9.96Q76.14-11.75 77.03-12.78L77.03-12.78L77.03-12.78Q77.93-13.82 79.52-13.82L79.52-13.82L81.55-13.82L81.55-13.82Q83.19-13.82 84.08-12.78L84.08-12.78L84.08-12.78Q84.98-11.75 84.98-9.96L84.98-9.96L84.98-6.72L84.98-6.72Q84.98-6.06 84.46-6.06ZM83.66-7.52L83.66-9.96L83.66-9.96Q83.66-12.36 81.55-12.36L81.55-12.36L79.52-12.36L79.52-12.36Q77.46-12.36 77.46-9.96L77.46-9.96L77.46-7.52L83.66-7.52ZM94.56 0L94.56 0L91.46 0L91.46 0Q89.96 0 89.06-1.03L89.06-1.03L89.06-1.03Q88.17-2.07 88.17-3.85L88.17-3.85L88.17-9.96L88.17-9.96Q88.17-11.75 89.06-12.78L89.06-12.78L89.06-12.78Q89.96-13.82 91.46-13.82L91.46-13.82L94.56-13.82L94.56-13.82Q95.08-13.82 95.08-13.25L95.08-13.25L95.08-12.93L95.08-12.93Q95.08-12.64 94.92-12.50L94.92-12.50L94.92-12.50Q94.75-12.36 94.56-12.36L94.56-12.36L91.46-12.36L91.46-12.36Q89.49-12.36 89.49-9.96L89.49-9.96L89.49-3.90L89.49-3.90Q89.49-1.46 91.46-1.46L91.46-1.46L94.56-1.46L94.56-1.46Q95.08-1.46 95.08-0.89L95.08-0.89L95.08-0.56L95.08-0.56Q95.08-0.23 94.92-0.12L94.92-0.12L94.92-0.12Q94.75 0 94.56 0ZM103.49 0L103.49 0L102.69 0L102.69 0Q101.14 0 100.20-1.03L100.20-1.03L100.20-1.03Q99.26-2.07 99.26-3.85L99.26-3.85L99.26-12.46L97.95-12.46L97.95-12.46Q97.48-12.46 97.48-13.02L97.48-13.02L97.48-13.35L97.48-13.35Q97.48-13.96 97.95-13.96L97.95-13.96L99.26-13.96L99.26-15.79L99.26-15.79Q99.26-16.03 99.40-16.24L99.40-16.24L99.40-16.24Q99.55-16.45 99.78-16.45L99.78-16.45L100.11-16.45L100.11-16.45Q100.34-16.45 100.46-16.24L100.46-16.24L100.46-16.24Q100.58-16.03 100.58-15.79L100.58-15.79L100.58-13.96L103.26-13.96L103.26-13.96Q103.78-13.96 103.78-13.35L103.78-13.35L103.78-13.02L103.78-13.02Q103.78-12.69 103.61-12.57L103.61-12.57L103.61-12.57Q103.45-12.46 103.26-12.46L103.26-12.46L100.58-12.46L100.58-3.85L100.58-3.85Q100.58-1.50 102.69-1.50L102.69-1.50L103.49-1.50L103.49-1.50Q104.01-1.50 104.01-0.94L104.01-0.94L104.01-0.56L104.01-0.56Q104.01-0.23 103.85-0.12L103.85-0.12L103.85-0.12Q103.68 0 103.49 0ZM110.45-12.36L110.45-12.36L109.60-12.36L109.60-12.36Q108.66-12.36 108.15-11.63L108.15-11.63L108.15-11.63Q107.63-10.90 107.63-9.73L107.63-9.73L107.63-0.61L107.63-0.61Q107.63 0 107.16 0L107.16 0L106.88 0L106.88 0Q106.50 0 106.50-0.61L106.50-0.61L106.50-13.25L106.50-13.25Q106.50-13.82 106.88-13.82L106.88-13.82L107.16-13.82L107.16-13.82Q107.35-13.82 107.44-13.72L107.44-13.72L107.44-13.72Q107.54-13.63 107.72-13.16L107.72-13.16L107.72-13.16Q108.33-13.49 108.73-13.65L108.73-13.65L108.73-13.65Q109.13-13.82 109.65-13.82L109.65-13.82L110.45-13.82L110.45-13.82Q110.64-13.82 110.78-13.65L110.78-13.65L110.78-13.65Q110.92-13.49 110.92-13.25L110.92-13.25L110.92-12.93L110.92-12.93Q110.92-12.36 110.45-12.36ZM119.05 0L119.05 0L117.08 0L117.08 0Q115.48 0 114.59-1.03L114.59-1.03L114.59-1.03Q113.69-2.07 113.69-3.85L113.69-3.85L113.69-9.96L113.69-9.96Q113.69-11.75 114.59-12.78L114.59-12.78L114.59-12.78Q115.48-13.82 117.08-13.82L117.08-13.82L119.05-13.82L119.05-13.82Q120.60-13.82 121.54-12.78L121.54-12.78L121.54-12.78Q122.48-11.75 122.48-9.96L122.48-9.96L122.48-3.85L122.48-3.85Q122.48-2.07 121.54-1.03L121.54-1.03L121.54-1.03Q120.60 0 119.05 0ZM121.12-3.90L121.12-9.96L121.12-9.96Q121.12-12.36 119.05-12.36L119.05-12.36L117.08-12.36L117.08-12.36Q115.01-12.36 115.01-9.96L115.01-9.96L115.01-3.90L115.01-3.90Q115.01-1.46 117.08-1.46L117.08-1.46L119.05-1.46L119.05-1.46Q121.12-1.46 121.12-3.90L121.12-3.90ZM134.14 0L134.14 0L133.81 0L133.81 0Q133.34 0 133.34-0.61L133.34-0.61L133.34-9.96L133.34-9.96Q133.34-12.36 131.27-12.36L131.27-12.36L129.58-12.36L129.58-12.36Q127.37-12.36 127.37-10.06L127.37-10.06L127.37-0.61L127.37-0.61Q127.37 0 126.85 0L126.85 0L126.52 0L126.52 0Q126.05 0 126.05-0.61L126.05-0.61L126.05-13.25L126.05-13.25Q126.05-13.49 126.17-13.65L126.17-13.65L126.17-13.65Q126.29-13.82 126.52-13.82L126.52-13.82L126.85-13.82L126.85-13.82Q126.99-13.82 127.11-13.70L127.11-13.70L127.11-13.70Q127.23-13.58 127.46-13.21L127.46-13.21L127.46-13.21Q128.54-13.82 129.58-13.82L129.58-13.82L131.27-13.82L131.27-13.82Q132.82-13.82 133.76-12.78L133.76-12.78L133.76-12.78Q134.70-11.75 134.70-9.96L134.70-9.96L134.70-0.61L134.70-0.61Q134.70 0 134.14 0ZM139.45-15.60L139.45-15.60L138.13-15.60L138.13-15.60Q138.04-15.60 138.11-15.84L138.11-15.84L138.11-15.84Q138.18-16.07 138.18-16.26L138.18-16.26L138.18-18.38L138.18-18.38Q138.18-18.61 138.11-18.80L138.11-18.80L138.11-18.80Q138.04-18.99 138.13-18.99L138.13-18.99L139.45-18.99L139.45-18.99Q139.54-18.99 139.52-18.80L139.52-18.80L139.52-18.80Q139.50-18.61 139.50-18.38L139.50-18.38L139.50-16.26L139.50-16.26Q139.50-16.07 139.52-15.84L139.52-15.84L139.52-15.84Q139.54-15.60 139.45-15.60ZM139.45 0L139.45 0L138.13 0L138.13 0Q138.04 0 138.11-0.21L138.11-0.21L138.11-0.21Q138.18-0.42 138.18-0.61L138.18-0.61L138.18-13.44L138.18-13.44Q138.18-13.68 138.11-13.87L138.11-13.87L138.11-13.87Q138.04-14.05 138.13-14.05L138.13-14.05L139.45-14.05L139.45-14.05Q139.54-14.05 139.52-13.87L139.52-13.87L139.52-13.87Q139.50-13.68 139.50-13.44L139.50-13.44L139.50-0.61L139.50-0.61Q139.50-0.42 139.52-0.21L139.52-0.21L139.52-0.21Q139.54 0 139.45 0ZM149.32 0L149.32 0L146.22 0L146.22 0Q144.71 0 143.82-1.03L143.82-1.03L143.82-1.03Q142.93-2.07 142.93-3.85L142.93-3.85L142.93-9.96L142.93-9.96Q142.93-11.75 143.82-12.78L143.82-12.78L143.82-12.78Q144.71-13.82 146.22-13.82L146.22-13.82L149.32-13.82L149.32-13.82Q149.84-13.82 149.84-13.25L149.84-13.25L149.84-12.93L149.84-12.93Q149.84-12.64 149.67-12.50L149.67-12.50L149.67-12.50Q149.51-12.36 149.32-12.36L149.32-12.36L146.22-12.36L146.22-12.36Q144.24-12.36 144.24-9.96L144.24-9.96L144.24-3.90L144.24-3.90Q144.24-1.46 146.22-1.46L146.22-1.46L149.32-1.46L149.32-1.46Q149.84-1.46 149.84-0.89L149.84-0.89L149.84-0.56L149.84-0.56Q149.84-0.23 149.67-0.12L149.67-0.12L149.67-0.12Q149.51 0 149.32 0ZM157.12 0L157.12 0L153.27 0L153.27 0Q152.80 0 152.80-0.56L152.80-0.56L152.80-0.89L152.80-0.89Q152.80-1.46 153.27-1.46L153.27-1.46L157.12-1.46L157.12-1.46Q158.20-1.46 158.67-1.93L158.67-1.93L158.67-1.93Q159.14-2.40 159.14-3.20L159.14-3.20L159.14-3.90L159.14-3.90Q159.14-4.79 158.91-5.24L158.91-5.24L158.91-5.24Q158.67-5.69 157.92-6.02L157.92-6.02L154.96-7.14L154.96-7.14Q153.60-7.66 153.13-8.44L153.13-8.44L153.13-8.44Q152.66-9.21 152.66-10.57L152.66-10.57L152.66-10.57Q152.66-13.82 155.76-13.82L155.76-13.82L159.38-13.82L159.38-13.82Q159.61-13.82 159.75-13.65L159.75-13.65L159.75-13.65Q159.89-13.49 159.89-13.25L159.89-13.25L159.89-12.93L159.89-12.93Q159.89-12.36 159.38-12.36L159.38-12.36L155.76-12.36L155.76-12.36Q154.72-12.36 154.37-11.91L154.37-11.91L154.37-11.91Q154.02-11.47 154.02-10.95L154.02-10.95L154.02-10.25L154.02-10.25Q154.02-9.59 154.28-9.26L154.28-9.26L154.28-9.26Q154.54-8.93 155.33-8.60L155.33-8.60L158.30-7.38L158.30-7.38Q159.52-6.86 159.96-5.90L159.96-5.90L159.96-5.90Q160.41-4.93 160.41-3.34L160.41-3.34L160.41-3.34Q160.41-1.55 159.59-0.78L159.59-0.78L159.59-0.78Q158.77 0 157.12 0Z" fill="#fff"></path></g></g><style>text {
  font-size: 64px;
  font-family: Arial Black;
  dominant-baseline: central;
  text-anchor: middle;
}</style></svg>